<?xml version="1.0" standalone="no"?>
<!DOCTYPE svg PUBLIC "-//W3C//DTD SVG 20010904//EN"
 "http://www.w3.org/TR/2001/REC-SVG-20010904/DTD/svg10.dtd">
<svg version="1.0" xmlns="http://www.w3.org/2000/svg"
 width="260.000000pt" height="260.000000pt" viewBox="0 0 260.000000 260.000000"
 preserveAspectRatio="xMidYMid meet">
<metadata>
Created by potrace 1.11, written by Peter Selinger 2001-2013
</metadata>
<g transform="translate(0.000000,260.000000) scale(0.100000,-0.100000)"
fill="#000000" stroke="none">
<path d="M0 1300 l0 -1300 1300 0 1300 0 0 1300 0 1300 -1300 0 -1300 0 0
-1300z m1840 478 c0 7 15 12 36 12 21 0 33 -4 29 -10 -3 -5 -1 -10 4 -10 6 0
11 5 11 10 0 7 74 10 213 10 l213 -1 0 -34 c0 -26 -2 -30 -10 -19 -14 19 -206
30 -236 14 -20 -10 -20 -19 -20 -344 l0 -334 -25 -16 c-32 -21 -38 -20 -26 3
6 11 11 157 13 358 l3 339 -110 -2 -110 -1 -14 -31 c-21 -45 -31 -39 -19 11
17 73 18 74 34 53 8 -11 14 -14 14 -8z m-1197 -13 c-97 -18 -151 -44 -196 -94
-155 -172 -102 -486 98 -589 22 -12 34 -21 27 -22 -41 -1 -135 79 -173 146
-17 30 -37 54 -44 54 -21 0 -37 65 -37 144 0 217 146 377 342 375 l55 -1 -72
-13z m110 8 c-7 -2 -19 -2 -25 0 -7 3 -2 5 12 5 14 0 19 -2 13 -5z m749 -18
c18 -8 25 -14 16 -15 -9 0 -20 -10 -24 -22 -4 -12 -5 -166 -3 -343 l4 -320
-30 -2 c-27 -2 -28 -2 -7 7 l22 9 0 336 c0 184 0 338 0 343 0 4 -40 7 -88 7
-69 -1 -95 -5 -129 -23 -162 -85 -219 -324 -123 -518 22 -46 46 -77 82 -104
95 -76 98 -70 101 310 l2 305 3 -327 c2 -317 1 -328 -18 -338 -15 -8 -27 -6
-57 13 -48 31 -106 95 -133 147 -11 22 -25 38 -30 35 -17 -10 -35 39 -47 132
-13 99 58 263 142 327 69 53 112 66 202 60 46 -3 98 -11 115 -19z m-608 -6
c20 -18 -21 -18 -74 1 l-55 20 60 -6 c33 -4 64 -10 69 -15z m518 -361 l4 -338
-25 0 c-23 1 -24 2 -8 11 16 9 17 37 18 347 0 185 2 333 4 327 2 -5 5 -162 7
-347z m227 276 c61 -70 84 -139 82 -254 -2 -156 -41 -252 -126 -307 -27 -18
-57 -33 -65 -32 -11 0 -11 3 4 12 46 29 78 62 97 99 32 63 49 164 42 249 -3
41 -5 100 -5 133 1 58 0 59 -53 112 -30 30 -45 50 -35 44 10 -5 36 -30 59 -56z
m-725 -280 c-43 -30 -44 -32 -44 -154 0 -65 -3 -126 -6 -135 -10 -26 -60 -45
-116 -44 l-53 1 46 8 c88 15 89 17 90 135 2 148 2 149 13 157 11 7 -34 28 -60
28 -8 0 -14 3 -14 8 0 4 37 7 81 8 69 0 79 -1 63 -12z m214 -199 c6 -13 8 -27
3 -29 -7 -5 -31 34 -31 49 0 15 18 1 28 -20z"/>
</g>
</svg>
